<?xml version="1.0" encoding="utf-8"?>
<!-- Generator: Adobe Illustrator 19.0.0, SVG Export Plug-In . SVG Version: 6.00 Build 0)  -->
<svg version="1.1" id="Layer_1" xmlns="http://www.w3.org/2000/svg" xmlns:xlink="http://www.w3.org/1999/xlink" x="0px" y="0px"
	 viewBox="-241 334 75 105" style="enable-background:new -241 334 75 105;" xml:space="preserve">
<circle cx="-204" cy="347.7" r="13.6"/>
<path d="M-189.7,410v10.1h-1.7v2c0,0.1-0.1,1.8,1,3c1.1,1.3,3,1.3,3,1.3l1.6,0l0-16.5L-189.7,410L-189.7,410z"/>
<path d="M-187.8,364.3l-32.4,0c-10.2,0-16.6,8.3-16.6,18.8v44.4c0,8.6,11.4,8.6,11.4,0v-43.2h3.6l0,23.8h3.8v-10.1h4.7V408h3.2
	v-10.1h1.7v-7.9c0-0.8,1.5-0.8,1.5,0v7.9h1.5V408h3.2v-10.1h4.7V408h3.2v-10.1h4.7V408h3.9l0-23.8h3.6v42.2h-3.6v1.3v0h3.6
	c0.4,8.3,11.3,8.2,11.3-0.4v-44.1C-170.9,373.7-176.6,364.3-187.8,364.3z M-214,389.5c0-0.7,0.5-1.2,1.2-1.2c0.7,0,1.2,0.5,1.2,1.2
	c0,0.7-0.5,1.2-1.2,1.2C-213.5,390.7-214,390.2-214,389.5z M-212,394.3c-0.7,0-1.2-0.5-1.2-1.2c0-0.7,0.5-1.2,1.2-1.2
	c0.7,0,1.2,0.5,1.2,1.2S-211.3,394.3-212,394.3z M-211.3,387.6c-0.7,0-1.2-0.5-1.2-1.2c0-0.7,0.5-1.2,1.2-1.2c0.7,0,1.2,0.5,1.2,1.2
	C-210.1,387.1-210.6,387.6-211.3,387.6z M-208,386.4c-0.7,0-1.2-0.5-1.2-1.2c0-0.7,0.5-1.2,1.2-1.2c0.7,0,1.2,0.5,1.2,1.2
	C-206.8,385.9-207.3,386.4-208,386.4z M-205.7,386.4c0-0.7,0.5-1.2,1.2-1.2c0.7,0,1.2,0.5,1.2,1.2c0,0.7-0.5,1.2-1.2,1.2
	C-205.2,387.6-205.7,387.1-205.7,386.4z M-203.6,394.3c-0.7,0-1.2-0.5-1.2-1.2c0-0.7,0.5-1.2,1.2-1.2c0.7,0,1.2,0.5,1.2,1.2
	S-202.9,394.3-203.6,394.3z M-202.8,390.7c-0.7,0-1.2-0.5-1.2-1.2s0.5-1.2,1.2-1.2c0.7,0,1.2,0.5,1.2,1.2
	C-201.6,390.2-202.2,390.7-202.8,390.7z"/>
<path d="M-185.8,434l0-6.1l-1.6,0c-0.1,0-2.5,0-4.1-1.7c-1.5-1.7-1.3-3.9-1.3-4v-2h-1.7V410h-3.2v10.1h-4.7V410h-3.2v10.1h-4.7V410
	h-3.2v10.1h-4.7V410h-3.8l0,23.9H-185.8z"/>
<text transform="matrix(1 0 0 1 -255 449)" style="font-family:'Arial-BoldMT'; font-size:5px;">Created by Luis Prado</text>
<text transform="matrix(1 0 0 1 -255 454)" style="font-family:'Arial-BoldMT'; font-size:5px;">from the Noun Project</text>
</svg>
