<?xml version="1.0" encoding="utf-8"?>
<!-- Generator: Adobe Illustrator 19.0.0, SVG Export Plug-In . SVG Version: 6.00 Build 0)  -->
<svg version="1.1" id="Layer_1" xmlns="http://www.w3.org/2000/svg" xmlns:xlink="http://www.w3.org/1999/xlink" x="0px" y="0px"
	 viewBox="-251.5 337.5 92.7 92.7" style="enable-background:new -251.5 337.5 92.7 92.7;" xml:space="preserve">
<g>
	<path d="M-205,365.7c10.1,0,18.3,8.2,18.3,18.3c0,10.1-8.2,18.3-18.3,18.3c-10.1,0-18.3-8.2-18.3-18.3
		C-223.3,373.9-215.1,365.7-205,365.7 M-205,356.7c-15.1,0-27.3,12.2-27.3,27.3c0,15.1,12.2,27.3,27.3,27.3
		c15.1,0,27.3-12.2,27.3-27.3C-177.8,368.9-189.9,356.7-205,356.7L-205,356.7z"/>
	<circle cx="-205" cy="384" r="9.3"/>
</g>
<g>
	<path d="M-205,338.6c-25.1,0-45.4,20.3-45.4,45.4c0,25.1,20.3,45.4,45.4,45.4s45.4-20.3,45.4-45.4
		C-159.6,358.9-179.9,338.6-205,338.6z M-205,419.7c-20.1,0-36.4-16.3-36.4-36.4c0-20.1,16.3-36.4,36.4-36.4
		c20.1,0,36.4,16.3,36.4,36.4S-184.9,419.7-205,419.7z"/>
</g>
<text transform="matrix(1 0 0 1 -255 449)" style="font-family:'Arial-BoldMT'; font-size:5px;">Created by john melven</text>
<text transform="matrix(1 0 0 1 -255 454)" style="font-family:'Arial-BoldMT'; font-size:5px;">from the Noun Project</text>
</svg>
