<?xml version="1.0" encoding="utf-8"?>
<!-- Generator: Adobe Illustrator 19.0.0, SVG Export Plug-In . SVG Version: 6.00 Build 0)  -->
<svg version="1.1" id="Layer_1" xmlns="http://www.w3.org/2000/svg" xmlns:xlink="http://www.w3.org/1999/xlink" x="0px" y="0px"
	 viewBox="-290 384.5 30 20" style="enable-background:new -290 384.5 30 20;" xml:space="preserve">
<g transform="translate(-30 -140)">
	<path d="M-232,527.5v-1h-19v-1h-3v1h-2v1h-3v1l2.7,1.3l-2.7,0.7v1c0,0,3,1,3,2s-3,3-3,8v2h9v-1h-1.5l-0.5-1l1.8-5
		c0.6,0.3,1.8,0.5,3.7,0.5c3.9,0,4.5-0.9,4.5-1.5v-3h10v-3h1v-2H-232z M-253,530.5h-1v-3h1V530.5z M-251,530.5h-1v-3h1V530.5z
		 M-250,527.5h1v3h-1V527.5z M-243,535.4c-0.1,0.1-0.8,0.6-3.5,0.6c-2.1,0-3-0.3-3.3-0.5l1.1-3h1.7v1v1h2v-1h-1v-1h3V535.4z"/>
</g>
<text transform="matrix(1 0 0 1 -290 423.5)" style="font-family:'Arial-BoldMT'; font-size:5px;">Created by Hea Poh Lin</text>
<text transform="matrix(1 0 0 1 -290 428.5)" style="font-family:'Arial-BoldMT'; font-size:5px;">from the Noun Project</text>
</svg>
