<?xml version="1.0" encoding="utf-8"?>
<!-- Generator: Adobe Illustrator 19.0.0, SVG Export Plug-In . SVG Version: 6.00 Build 0)  -->
<svg version="1.1"
	 id="Layer_1" xmlns:dc="http://purl.org/dc/elements/1.1/" xmlns:cc="http://creativecommons.org/ns#" xmlns:rdf="http://www.w3.org/1999/02/22-rdf-syntax-ns#" xmlns:sodipodi="http://sodipodi.sourceforge.net/DTD/sodipodi-0.dtd" xmlns:svg="http://www.w3.org/2000/svg" xmlns:inkscape="http://www.inkscape.org/namespaces/inkscape"
	 xmlns="http://www.w3.org/2000/svg" xmlns:xlink="http://www.w3.org/1999/xlink" x="0px" y="0px"
	 viewBox="278 -310.4 1168.7 1129.9" style="enable-background:new 278 -310.4 1168.7 1129.9;" xml:space="preserve">
<path d="M1256.7-310.4c-13,0-23.6,10.6-23.6,23.6v77.1c0,13,10.6,23.6,23.6,23.6c13.1,0,23.6-10.6,23.6-23.6v-77.1
	C1280.3-299.8,1269.8-310.4,1256.7-310.4z M1374.3-261.7c-6,0-12.1,2.3-16.7,6.9l-54.5,54.5c-9.2,9.2-9.2,24.1,0,33.3
	c4.6,4.6,10.7,6.9,16.7,6.9c6.1,0,12.1-2.3,16.7-6.9l54.5-54.5c9.2-9.2,9.2-24.1,0-33.3C1386.4-259.4,1380.4-261.7,1374.3-261.7z
	 M1139.3-261.6c-6,0-12.1,2.3-16.7,6.9c-9.2,9.2-9.2,24.1,0,33.3l54.4,54.5c4.6,4.6,10.7,6.9,16.7,6.9c6.1,0,12.1-2.3,16.6-6.9
	c9.2-9.2,9.2-24.1,0-33.3l-54.4-54.5C1151.4-259.3,1145.3-261.6,1139.3-261.6L1139.3-261.6z M1175.9-149.4
	c-19.6,0.1-39.5,3.6-56.7,13.5c-21.3,12.2-35.5,32.6-41.1,59.2c-5.5,26.2-13.9,45.6-24.1,56.1l-72.2-72.2
	c-18.4-18.4-48.3-18.4-66.7,0L831.8-9.4c-41.3-13.1-84.8-20-129.3-20c-113.4,0-220,44.1-300.1,124.3C322.2,175.1,278,281.7,278,395
	c0.1,113.4,44.2,220,124.4,300.2c80.1,80.1,186.7,124.3,300.1,124.3c113.4,0,220-44.1,300.2-124.3
	c115.9-116,150.6-282.9,104.1-429.3l83.4-83.4c8.9-8.8,13.8-20.8,13.8-33.3c0-12.5-5-24.5-13.8-33.3L1084.3,9.8
	c16.4-16.7,28.3-42.7,35.7-77.7c3.1-14.7,9.8-24.7,20.4-30.8c29.8-16.9,81.9-1.6,97.3,3.5c11.3,3.8,23.4-2.3,27.2-13.5
	c3.8-11.2-2.3-23.4-13.5-27.2C1232.8-142,1204.6-149.4,1175.9-149.4L1175.9-149.4z M1346-144.1c-13,0-23.6,10.6-23.6,23.6
	c0,13,10.6,23.6,23.6,23.6h77.1c13.1,0,23.6-10.6,23.6-23.6c0-13-10.5-23.6-23.6-23.6H1346z M1193.7-81.1c-6,0-12.1,2.3-16.7,6.9
	l-54.5,54.5c-9.2,9.2-9.2,24.1,0,33.3c4.6,4.6,10.7,6.9,16.7,6.9c6.1,0,12.1-2.3,16.6-6.9l54.5-54.5c9.2-9.2,9.2-24.1,0-33.3
	C1205.8-78.8,1199.7-81.1,1193.7-81.1L1193.7-81.1z M1319.8-81c-6,0-12.1,2.3-16.7,6.9c-9.2,9.2-9.2,24.1,0,33.3l54.5,54.5
	c4.6,4.6,10.7,6.9,16.7,6.9c6.1,0,12.1-2.3,16.6-6.9c9.2-9.2,9.2-24.1,0-33.3l-54.5-54.5C1331.9-78.7,1325.9-81,1319.8-81L1319.8-81
	z M1256.7-54.9c-13,0-23.6,10.6-23.6,23.6v77.1c0,13,10.6,23.6,23.6,23.6c13.1,0,23.6-10.6,23.6-23.6v-77.1
	C1280.3-44.4,1269.8-54.9,1256.7-54.9z M948.4,7.4l141.8,141.7l-25.1,25.1c-17.2-28.2-38-54.9-62.4-79.3
	c-24.2-24.2-50.8-45.1-79.3-62.5L948.4,7.4L948.4,7.4z M702.5,65c88.2,0,171.2,34.3,233.5,96.7c128.7,128.7,128.7,338.2,0,466.9
	c-62.3,62.3-145.3,96.7-233.5,96.7c-88.1,0-171.1-34.3-233.4-96.7c-62.3-62.4-96.7-145.3-96.7-233.5c0-88.2,34.4-171.1,96.7-233.5
	C531.4,99.3,614.3,65,702.5,65L702.5,65z"/>
<text transform="matrix(1 0 0 1 278 834.5238)" style="font-family:'Arial-BoldMT'; font-size:5px;">Created by logan</text>
<text transform="matrix(1 0 0 1 278 839.5238)" style="font-family:'Arial-BoldMT'; font-size:5px;">from the Noun Project</text>
</svg>
