<?xml version="1.0" encoding="utf-8"?>
<!-- Generator: Adobe Illustrator 19.0.0, SVG Export Plug-In . SVG Version: 6.00 Build 0)  -->
<svg version="1.1"
	 id="Layer_1" xmlns:dc="http://purl.org/dc/elements/1.1/" xmlns:cc="http://creativecommons.org/ns#" xmlns:rdf="http://www.w3.org/1999/02/22-rdf-syntax-ns#" xmlns:sodipodi="http://sodipodi.sourceforge.net/DTD/sodipodi-0.dtd" xmlns:svg="http://www.w3.org/2000/svg" xmlns:inkscape="http://www.inkscape.org/namespaces/inkscape"
	 xmlns="http://www.w3.org/2000/svg" xmlns:xlink="http://www.w3.org/1999/xlink" x="0px" y="0px" viewBox="-255 350 100 66"
	 style="enable-background:new -255 350 100 66;" xml:space="preserve">
<g transform="translate(0,-952.36218)">
	<path d="M-171,1307.4c1.7,0,3,1.3,3,3s-1.3,3-3,3h-49.3l-10.1,15.6c-0.3,0.5-0.9,1-1.5,1.2l-14.1,5.3v17.9h4.2c0.9-4.5,5-8,9.8-8
		s8.9,3.5,9.8,8h24.4c0.9-4.5,5-8,9.8-8s8.9,3.5,9.8,8h4.2v-11c0-1.7,1.3-3,3-3s3,1.3,3,3v14c0,1.6-1.4,3-3,3h-7.8
		c-1.6,3.5-5.1,6-9.2,6s-7.6-2.5-9.2-6h-25.7c-1.6,3.5-5.1,6-9.2,6s-7.6-2.5-9.2-6h-7.8c-1.6,0-3-1.4-3-3v-23c0-1.2,0.8-2.4,1.9-2.8
		l15.1-5.7l10.5-16.2c0.5-0.8,1.5-1.4,2.5-1.4H-171z M-161,1315.4c1.7,0,3,1.3,3,3s-1.3,3-3,3h-28c-1.7,0-3-1.3-3-3s1.3-3,3-3H-161z
		 M-163,1323.4c1.7,0,3,1.3,3,3s-1.3,3-3,3h-26c-1.7,0-3-1.3-3-3s1.3-3,3-3H-163z M-167,1331.4c1.7,0,3,1.3,3,3s-1.3,3-3,3h-22
		c-1.7,0-3-1.3-3-3s1.3-3,3-3H-167z M-188,1351.4c-2.2,0-4,1.8-4,4c0,2.2,1.8,4,4,4s4-1.8,4-4C-184,1353.1-185.8,1351.4-188,1351.4z
		 M-232,1351.4c-2.2,0-4,1.8-4,4c0,2.2,1.8,4,4,4s4-1.8,4-4C-228,1353.1-229.8,1351.4-232,1351.4z"/>
</g>
<text transform="matrix(1 0 0 1 -255 449)" style="font-family:'Arial-BoldMT'; font-size:5px;">Created by Rockicon</text>
<text transform="matrix(1 0 0 1 -255 454)" style="font-family:'Arial-BoldMT'; font-size:5px;">from the Noun Project</text>
</svg>
