<?xml version="1.0" encoding="utf-8"?>
<!-- Generator: Adobe Illustrator 19.0.0, SVG Export Plug-In . SVG Version: 6.00 Build 0)  -->
<svg version="1.1" id="Layer_1" xmlns="http://www.w3.org/2000/svg" xmlns:xlink="http://www.w3.org/1999/xlink" x="0px" y="0px"
	 viewBox="-255 334 100 100" style="enable-background:new -255 334 100 100;" xml:space="preserve">
<path d="M-197.6,391.1v-26.7c0-0.9-0.9-1.5-1.7-1.5h-29.9h-9h-2.1c-0.9,0-1.4,0.6-1.4,1.5v26.7c0,0.9,0.6,1.5,1.4,1.5h41
	C-198.5,392.6-197.6,391.9-197.6,391.1z"/>
<path d="M-229.2,357.6c0-5.3,4.2-9.7,9.6-9.7c5.3,0,9.6,4.3,9.6,9.7v1.7h9v-1.7c0-10.3-8.3-18.6-18.5-18.6h0
	c-10.3,0-18.5,8.4-18.5,18.6v1.7h9V357.6z"/>
<path d="M-175.6,388.1c1.5,1.5,4,1.5,5.5,0c1.5-1.5,1.5-4,0-5.5l-18.6-18.6c-1.5-1.5-4-1.5-5.5,0c-1.5,1.5-1.5,4,0,5.5L-175.6,388.1
	z"/>
<path d="M-202.3,419.3c1.5-1.5,1.5-4,0-5.5l-17.6-17.6c-1.5-1.5-4-1.5-5.5,0c-1.5,1.5-1.5,4,0,5.5l17.6,17.6
	C-206.3,420.8-203.8,420.8-202.3,419.3z"/>
<path d="M-198.3,397.2c-3.4,0-6.6,1.3-9,3.6l-2.8,2.8l4.9,4.9l2.8-2.7c0,0,0,0,0.1-0.1l8-7.8C-195.7,397.4-197,397.2-198.3,397.2z"
	/>
<path d="M-194.3,413.8C-194.4,413.9-194.4,413.9-194.3,413.8l-6.8,6.6c-1.1,1.1-2.5,1.7-4.1,1.6c-1.5,0-3-0.6-4-1.7
	c-0.5-0.5-0.9-1.1-1.1-1.7l-6.7-6.5c0,0.1-0.1,0.2-0.1,0.3c-1.4,4.3-0.4,9.3,3,12.8c2.4,2.4,5.5,3.8,8.9,3.8c3.4,0,6.6-1.3,9-3.6
	l6.7-6.6c2.4-2.4,3.8-5.5,3.8-8.9c0-1.3-0.2-2.7-0.6-3.9L-194.3,413.8z"/>
<path d="M-164,376c-2.4-2.4-5.5-3.8-8.9-3.8c-1.4,0-2.8,0.2-4.1,0.7l7.2,7.2c0.3,0.2,0.6,0.5,0.9,0.8c1.1,1.1,1.7,2.5,1.6,4.1
	c0,1.5-0.6,3-1.7,4.1l-6.7,6.6c0,0,0,0-0.1,0l-8,7.8c1.2,0.4,2.5,0.7,3.9,0.7c3.4,0,6.6-1.3,9-3.6l6.7-6.6c2.4-2.4,3.8-5.5,3.8-8.9
	C-160.4,381.6-161.7,378.4-164,376z"/>
<path d="M-183.8,387.4l2.3-2.2l-4.9-4.9l-2.2,2.2c-3.5,3.4-4.6,8.4-3.2,12.8L-183.8,387.4C-183.8,387.4-183.8,387.4-183.8,387.4z"/>
<path d="M-195.9,412.2l18.5-18.1c1.6-1.6,1.8-4,0.5-5.4c-1.4-1.4-3.8-1.2-5.4,0.4l-18.5,18.1c-1.6,1.6-1.8,4-0.5,5.4
	C-199.9,414-197.5,413.8-195.9,412.2z"/>
<text transform="matrix(1 0 0 1 -255 449)" style="font-family:'Arial-BoldMT'; font-size:5px;">Created by Alex Tai</text>
<text transform="matrix(1 0 0 1 -255 454)" style="font-family:'Arial-BoldMT'; font-size:5px;">from the Noun Project</text>
</svg>
