<?xml version="1.0" encoding="utf-8"?>
<!-- Generator: Adobe Illustrator 19.0.0, SVG Export Plug-In . SVG Version: 6.00 Build 0)  -->
<svg version="1.1" id="Layer_1" xmlns="http://www.w3.org/2000/svg" xmlns:xlink="http://www.w3.org/1999/xlink" x="0px" y="0px"
	 viewBox="-261 347 88 100" style="enable-background:new -261 347 88 100;" xml:space="preserve">
<path d="M-178.4,347c-2.9,0-5.4,2.4-5.4,5.4v21.8c1.3,0.3,2.5,0.8,3.5,1.8c2.8,2.8,2.9,7.4,0.1,10.2l-10.2,10.4l-1.4-1.4l10.2-10.4
	c2-2.1,2-5.5-0.1-7.5c-0.7-0.6-1.4-1.1-2.3-1.3c-0.9-0.2-1.8-0.3-2.7-0.1c-1,0.2-1.9,0.7-2.6,1.5c-6,6.2-12.1,12.4-18.1,18.6
	c-1.5,1.6-4.3,5.1-4.2,8.6c0.1,3.3,0,6.8,0,10.1c-0.8-0.6-1.7-1.1-2.8-1.3c-3.1-0.5-5.9,1.3-7,4.1h-1.6c0-0.8,0-1.5,0-2.3
	c0.1-3.5-0.1-7.1,0-10.6c0.1-3.5-2.7-7.1-4.2-8.6c-6-6.2-12.1-12.4-18.1-18.6c-0.7-0.7-1.6-1.2-2.6-1.5c-0.9-0.2-1.8-0.2-2.7,0.1
	c-0.8,0.2-1.6,0.7-2.3,1.3c-2.1,2.1-2.1,5.4-0.1,7.5l10.2,10.4l-1.4,1.4l-10.2-10.5c-2.8-2.9-2.7-7.4,0.1-10.2c1-1,2.2-1.5,3.5-1.8
	v-21.8c0-3-2.4-5.4-5.4-5.4c-3,0-5.4,2.4-5.4,5.4v37.8c0,1.2,0.5,2.4,1.2,3.3l18.3,24.1h-1.6c-3.6,0-6.5,2.9-6.5,6.5
	c0,2.4,1.3,4.4,3.2,5.5c-1.9,1.1-3.2,3.1-3.2,5.5c0,3.6,2.9,6.5,6.5,6.5h2v3.6h17.9c0.9,0.9,2,1.6,3.3,1.8c0.4,0.1,0.7,0.1,1.1,0.1
	c3.1,0,5.8-2.3,6.4-5.4l0-0.2h1.1c0,1.2,0,2.4,0.1,3.6h18.3v-3.6h2c3.6,0,6.5-2.9,6.5-6.5c0-2.4-1.3-4.3-3.2-5.5
	c1.9-1.1,3.2-3.1,3.2-5.5c0-3.6-2.9-6.5-6.5-6.5h-1.6l18.3-24.1c0.7-0.9,1.2-2,1.2-3.3v-37.8C-173,349.4-175.4,347-178.4,347z
	 M-246.3,424.1c0-1.8,1.4-3.2,3.2-3.2h21.2l-1.1,6.5h-20.1C-244.9,427.3-246.3,425.8-246.3,424.1z M-246.3,435
	c0-1.8,1.4-3.2,3.2-3.2h19.3l-1.1,6.5h-18.2C-244.9,438.2-246.3,436.8-246.3,435z M-215.6,441.1c-0.3,1.8-2.1,2.9-3.7,2.6
	c-0.9-0.2-1.6-0.6-2.1-1.3c-0.5-0.7-0.7-1.6-0.5-2.4l3.6-20.7c0.3-1.6,1.6-2.7,3.2-2.7c0.2,0,0.4,0,0.5,0c1.8,0.3,2.9,2,2.6,3.7
	L-215.6,441.1z M-187.7,435c0,1.8-1.4,3.2-3.2,3.2h-20.9l1.1-6.5h19.8C-189.1,431.8-187.7,433.2-187.7,435z M-187.7,424.1
	c0,1.8-1.4,3.2-3.2,3.2h-19l1.1-6.3c0,0,0-0.1,0-0.1h18C-189.1,420.8-187.7,422.3-187.7,424.1z"/>
</svg>
