<?xml version="1.0" encoding="utf-8"?>
<!-- Generator: Adobe Illustrator 19.0.0, SVG Export Plug-In . SVG Version: 6.00 Build 0)  -->
<svg version="1.1" id="Layer_1" xmlns="http://www.w3.org/2000/svg" xmlns:xlink="http://www.w3.org/1999/xlink" x="0px" y="0px"
	 viewBox="-249 337 76 95" style="enable-background:new -249 337 76 95;" xml:space="preserve">
<g transform="scale(1 -1)">
	<g transform="translate(0 -96)">
		<g>
			<path marker-end="none" marker-start="none" d="M-228.8-327.5v20.5l-2.3-2.3l-3.7,3.7l8.9,8.9v10.5h8v-2.5l8.8,8.8l25.8-25.8
				l-3.7-3.7l-2.3,2.3v-20.5h-24.1v16.8h-8v-16.8H-228.8z M-197.2-318.5v7.8h-0.1c0.2,1.4,0.7,2.7,1.6,4.1c-0.5-0.3-3.1-0.1-4.1-4
				c-3.4,3.6,1.9,7.9-2.6,14.2c0-5.1-4.7-8.3-1.3-14.3h0c-4.1,2.9-2,6.7-2.1,8.7c-2.5-2.1-4.9-5.9-2-8.7l0-0.1h-1.4v-7.8H-197.2z
				 M-197-299.7c-1.7-1.3-0.8-2.3-1.6-5C-195.4-302.8-197.5-302-197-299.7z M-224.4-270.2c8.2,7.3,8.5,13.2,4.8,20.1
				c8.1-3.2,14-8.4,12.5-17.9c3.4,2,3.7,6.5,3.8,9.6c4.8-3.9,4.1-11,2.9-16.2c1.7,1.4,2.5,3.6,2.8,6.6c3.6-3.8,7.3-12.2,3.6-19.3
				c-0.1-0.2-0.2-0.5-0.3-0.7c2.1,1.5,4.6,1.8,7.3,1.3c-2.3-2.2-2.9-5.5-1.5-10.2l-5.4,5.4l-0.9,0.9l-1.1,1.1l-4,4
				c1,3.4,2.9,6.5,3.9,7.7c-2.3-0.2-6.2,0.2-8.5-3.1c-1.7,3.6-0.8,6.4,0.8,9.9c-3.8-1.7-8.1-4.7-10.3-9.1c-0.1,2.1,3,6.4,0.7,13
				c-1.2-4.8-10.7-6.6-9.9-16.5h-5.1v-12l-1.8-1.8C-236.5-288.3-232.2-277.1-224.4-270.2z"/>
		</g>
	</g>
</g>
<text transform="matrix(1 0 0 1 -257 448)" style="font-family:'Arial-BoldMT'; font-size:5px;">Created by Peter van Driel</text>
<text transform="matrix(1 0 0 1 -257 453)" style="font-family:'Arial-BoldMT'; font-size:5px;">from the Noun Project</text>
</svg>
