<?xml version="1.0" encoding="utf-8"?>
<!-- Generator: Adobe Illustrator 19.0.0, SVG Export Plug-In . SVG Version: 6.00 Build 0)  -->
<svg version="1.1" id="Layer_1" xmlns="http://www.w3.org/2000/svg" xmlns:xlink="http://www.w3.org/1999/xlink" x="0px" y="0px"
	 viewBox="-255 334 100 96" style="enable-background:new -255 334 100 96;" xml:space="preserve">
<path d="M-190.3,406.4c1.9-0.9,3.8-1.9,5.4-3.5c2.4-2.4,3.2-5.7,3.6-8c0.1-0.5,0.2-0.9,0.3-1.4c0.5-2.4,1.1-5.2,0.4-7.8
	c-0.6-2.2-1.7-3.7-3.3-4.4l0,0c-0.2-0.1-0.6-0.3-1.9-0.8v-6.3c0-3.5-2.9-6.4-6.4-6.4c-1.6,0-3.1,0.7-4.2,1.7c-1.2-1.6-3-2.6-5.1-2.6
	c-2,0-3.9,1-5,2.5c-1-0.9-2.3-1.5-3.7-1.5h-1.4c-2,0-3.7,1.1-4.6,2.6c-0.8-0.5-1.8-0.9-2.8-0.9h-1.3c-2.8,0-5,2.3-5,5v10.8
	c0,1.1-0.6,16,6,21.9c-0.2,0.8-0.4,1.8-0.7,2.7c-0.9,3.1-2,6.7,0,9.7c0.9,1.4,2.4,2.3,4.4,2.9c3.8,1.1,8,1.6,11.9,1.6
	c0.4,0,0.9,0,1.3,0l0.9,0c4-0.1,10-0.3,12.3-4.2c0.7-1.2,0.9-2.8,0.6-4.4c-0.4-2-1.2-4-1.9-5.8c-0.4-1-0.8-1.9-1.1-2.9
	c0.2-0.1,0.5-0.2,0.7-0.3L-190.3,406.4z M-195.2,373.9c0-1.6,1.3-2.9,2.9-2.9c1.9,0,3.4,1.5,3.4,3.4v5c-0.9-0.4-2-0.9-3.4-1.4
	c-1-0.4-2-0.5-3-0.3C-195.2,377.6-195.2,373.9-195.2,373.9z M-204.9,373.4c0-1.9,1.5-3.4,3.4-3.4s3.4,1.5,3.4,3.4v0.4v5.3
	c-0.5,0.5-0.8,1-1.1,1.7c-0.9,2.1-0.3,3.9,0.8,5.4c-0.5,1-1.5,1.8-2.7,1.8h-0.4c-1.9,0-3.4-1.5-3.4-3.4
	C-204.9,384.6-204.9,373.4-204.9,373.4z M-214.1,373.5c0-1.3,1.1-2.4,2.4-2.4h1.4c1.3,0,2.4,1.1,2.4,2.4v12c0,1.3-1.1,2.4-2.4,2.4
	h-1.4c-1.3,0-2.4-1.1-2.4-2.4v-10.6c0,0,0,0,0,0V373.5z M-222.5,374.8c0-1.1,0.9-2,2-2h1.3c1.1,0,2,0.9,2,2v10.6c0,0,0,0,0,0v0.2
	c0,1.1-0.9,2-2,2h-1.3c-1.1,0-2-0.9-2-2V374.8z M-192.4,404.1c-0.4,0.2-0.8,0.4-1.1,0.6c-1.7,0.9-3.3,1.7-5.1,2.2
	c-0.8,0.2-1.3,1.1-1,1.9c0.2,0.7,0.8,1.1,1.4,1.1c0.1,0,0.3,0,0.4-0.1c1.2-0.3,2.3-0.8,3.4-1.3c0.3,0.9,0.7,1.8,1,2.7
	c0.7,1.8,1.4,3.5,1.7,5.2c0.2,0.9,0.1,1.7-0.3,2.3c-1.5,2.5-6.7,2.7-9.8,2.7l-0.9,0c-4,0.1-8.3-0.4-12.3-1.5
	c-0.9-0.2-2.1-0.7-2.7-1.6c-1.2-1.9-0.4-4.6,0.3-7.2c0.2-0.6,0.4-1.3,0.5-1.9c0.9,0.4,2,0.6,3.1,0.7c0,0,0.1,0,0.1,0
	c0.8,0,1.5-0.6,1.5-1.4c0-0.8-0.6-1.5-1.4-1.6c-6.8-0.3-8.5-10.4-8.9-16.5c0.6,0.3,1.3,0.4,2,0.4h1.3c1.4,0,2.7-0.6,3.6-1.5
	c1,1,2.4,1.6,3.9,1.6h1.4c1.7,0,3.1-0.7,4.1-1.9c0.9,0.9,2,1.6,3.4,1.9c-1.1,1.5-2.1,3.4-2.7,5.8c-0.2,0.8,0.3,1.6,1.1,1.8
	c0.1,0,0.2,0,0.3,0c0.7,0,1.3-0.5,1.5-1.2c0.9-3.9,3.3-6.3,4.7-7.4c0,0,0,0,0.1-0.1c0.6-0.4,1.1-0.9,1.5-1.5
	c0.4,0.3,0.8,0.6,1.1,0.9c0.7,0.5,1.3,1,1.8,1.5c0.6,0.6,1.5,0.6,2.1,0c0.6-0.6,0.6-1.5,0-2.1c-0.6-0.6-1.3-1.1-2.1-1.7
	c-2.8-2.2-3.9-3.3-3.2-4.9c0.5-1.2,1.9-1.8,3.1-1.3c0,0,8.1,3.4,8.3,3.5c0.7,0.3,1.3,1.1,1.6,2.3c0.5,2,0,4.3-0.4,6.5
	c-0.1,0.5-0.2,1-0.3,1.4c-0.6,3.1-1.4,5-2.8,6.4c-1.2,1.2-2.9,2-4.6,2.9L-192.4,404.1z"/>
<path d="M-163,361.7l-15.9,0.2l2.5-17.4c0.2-0.7-0.1-1.3-0.7-1.7c-0.6-0.3-1.3-0.2-1.8,0.2l-15.6,14.1l-7.1-10.5
	c-0.3-0.4-0.7-0.7-1.2-0.7c-0.5,0-1,0.2-1.3,0.6l-7.6,8.2l-15.2-9.3c-0.5-0.3-1.1-0.3-1.6,0c-0.5,0.3-0.7,0.9-0.7,1.4l1.1,12.7
	l-13.5-0.8c-0.5,0-1,0.3-1.3,0.7c-0.3,0.5-0.3,1,0,1.5l7.4,14.3l-11.3,7.9c-0.5,0.3-0.8,0.8-0.8,1.3c0,0.5,0.3,1,0.8,1.3l12.1,5.9
	l-9.1,10.9c-0.4,0.5-0.5,1.1-0.2,1.6c0.3,0.5,0.8,0.8,1.4,0.8l15-0.8c0,0,1.2,0,1.1-0.4c-3.1-7.2-3-16-2.9-18.4v-10.7c0-5,4.1-9,9-9
	h1.3c0.6,0,1.2,0.1,1.8,0.2c1.6-1.2,3.6-1.9,5.7-1.9h1.4c1.1,0,2.3,0.2,3.3,0.6c1.6-1,3.5-1.6,5.5-1.6c2,0,3.9,0.6,5.5,1.6
	c1.2-0.5,2.5-0.8,3.8-0.8c5.7,0,10.4,4.7,10.4,10.4v3.7c1.9,0.9,4.1,2.9,5.1,6.8c0.9,3.6,0.2,6.9-0.4,9.6c-0.1,0.4-0.2,0.9-0.3,1.3
	c-0.5,2.8-1.6,6.8-4.6,9.9l11.3-3.7c0.4-0.1,0.8-0.5,0.9-0.9c0.2-0.4,0.1-0.9-0.1-1.3l-3.1-8.4l9.1-8.1c0.5-0.3,0.7-0.9,0.7-1.4
	c-0.1-0.6-0.4-1.1-1-1.2l-7.7-5l9.9-11.4c0.4-0.5,0.5-1.1,0.2-1.7C-161.8,361.9-162.4,361.6-163,361.7z"/>
<text transform="matrix(1 0 0 1 -255 449)" style="font-family:'Arial-BoldMT'; font-size:5px;">Created by Alina Oleynik</text>
<text transform="matrix(1 0 0 1 -255 454)" style="font-family:'Arial-BoldMT'; font-size:5px;">from the Noun Project</text>
</svg>
