<?xml version="1.0" encoding="utf-8"?>
<!-- Generator: Adobe Illustrator 19.0.0, SVG Export Plug-In . SVG Version: 6.00 Build 0)  -->
<svg version="1.1" id="Layer_1" xmlns="http://www.w3.org/2000/svg" xmlns:xlink="http://www.w3.org/1999/xlink" x="0px" y="0px"
	 viewBox="-255 334 100 105" style="enable-background:new -255 334 100 105;" xml:space="preserve">
<path d="M-212.3,335.2c-11.2,0-21.8,4.3-29.7,12.2c-7.9,8-12.3,18.5-12.3,29.7c0,11.2,4.4,21.8,12.3,29.7
	c7.9,7.9,18.5,12.3,29.7,12.3c8.9,0,17.4-2.8,24.6-8l1-0.7l0.2,0.2l20.9,20.9c1,1,2.4,1.6,3.8,1.6c1.5,0,2.8-0.6,3.8-1.6
	s1.6-2.4,1.6-3.8c0-1.5-0.6-2.8-1.6-3.8l-21-21.2l0.7-1c12.2-16.7,10.4-39.6-4.3-54.3C-190.6,339.5-201.1,335.2-212.3,335.2z
	 M-187.4,402.1c-6.7,6.7-15.5,10.3-24.9,10.3s-18.3-3.7-24.9-10.3c-6.7-6.7-10.4-15.5-10.4-25s3.7-18.3,10.3-24.9
	c6.7-6.7,15.5-10.3,24.9-10.3c9.4,0,18.3,3.7,24.9,10.3C-173.7,366-173.7,388.3-187.4,402.1z"/>
<path d="M-212.3,355.8c-7.3,0-13.3,6-13.3,13.3c0,1.3,1.1,2.4,2.4,2.4s2.4-1.1,2.4-2.4c0-4.7,3.8-8.5,8.5-8.5s8.5,3.8,8.5,8.5
	c0,4.7-3.8,8.5-8.5,8.5c-1.3,0-2.4,1.1-2.4,2.4v6.3c0,1.3,1.1,2.4,2.4,2.4s2.4-1.1,2.4-2.4v-4.1c6.3-1.2,10.9-6.6,10.9-13.1
	C-199,361.8-205,355.8-212.3,355.8z"/>
<path d="M-212.3,392.9c-1.8,0-3.3,1.5-3.3,3.3c0,1.8,1.5,3.3,3.3,3.3s3.3-1.5,3.3-3.3C-209,394.4-210.5,392.9-212.3,392.9z"/>
<text transform="matrix(1 0 0 1 -255 449)" style="font-family:'Arial-BoldMT'; font-size:5px;">Created by Thomas&apos; designs</text>
<text transform="matrix(1 0 0 1 -255 454)" style="font-family:'Arial-BoldMT'; font-size:5px;">from the Noun Project</text>
</svg>
